<svg width="110" height="135" viewBox="0 0 110 135" fill="none" xmlns="http://www.w3.org/2000/svg">
<path d="M54.668 45.3749C48.7539 45.3749 43.086 47.7265 38.906 51.9061C34.7263 56.0858 32.3748 61.7538 32.3748 67.6681C32.3748 73.5824 34.7264 79.2501 38.906 83.4301C43.0857 87.6098 48.7537 89.9613 54.668 89.9613C60.5823 89.9613 66.25 87.6097 70.43 83.4301C74.6097 79.2504 76.9612 73.5824 76.9612 67.6681C76.9495 61.7579 74.5979 56.0941 70.4182 51.9181C66.2424 47.7384 60.5782 45.3867 54.668 45.3749ZM54.668 84.3359C50.3282 84.2812 46.1836 82.5117 43.141 79.4179C40.098 76.3202 38.4027 72.1484 38.4183 67.8089C38.4378 63.4691 40.1722 59.3089 43.2386 56.2389C46.3089 53.1725 50.4691 51.4381 54.8086 51.4186C59.1484 51.403 63.3203 53.0983 66.4176 56.1413C69.5114 59.1843 71.2809 63.3288 71.3356 67.6683C71.3356 72.0902 69.5778 76.3285 66.4528 79.4533C63.3278 82.5781 59.0897 84.3359 54.668 84.3359ZM57.586 98.0429V106.418C57.586 108.027 56.2774 109.336 54.668 109.336C53.0586 109.336 51.75 108.027 51.75 106.418V97.8359C51.75 96.2226 53.0586 94.9179 54.668 94.9179C56.2774 94.9179 57.586 96.2226 57.586 97.8359V98.0429ZM35.418 86.9179C36.5625 88.0702 36.5625 89.9296 35.418 91.0859L29.336 97.125C28.7852 97.6875 28.0352 98 27.2501 98C26.4806 98 25.7423 97.6836 25.211 97.125C24.6407 96.582 24.3165 95.832 24.3165 95.043C24.3165 94.254 24.6407 93.5039 25.211 92.961L31.293 86.836C32.4649 85.7422 34.293 85.7773 35.418 86.9179ZM24.5 70.5859H15.918C14.3086 70.5859 13 69.2773 13 67.6679C13 66.0585 14.3086 64.7499 15.918 64.7499H24.5C26.1133 64.7499 27.418 66.0585 27.418 67.6679C27.418 69.2773 26.1133 70.5859 24.5 70.5859ZM25.207 42.3359H25.2109C24.0586 41.1836 24.0586 39.3203 25.2109 38.1679C26.3593 37.0156 28.2265 37.0156 29.375 38.1679L35.418 44.2929C36.5625 45.4452 36.5625 47.3046 35.418 48.4609C34.8516 48.9882 34.1094 49.2851 33.336 49.2929C32.5704 49.289 31.8399 48.9882 31.293 48.4609L25.207 42.3359ZM51.75 37.5V28.918C51.75 27.3086 53.0586 26 54.668 26C56.2774 26 57.586 27.3086 57.586 28.918V37.5C57.586 39.1133 56.2774 40.418 54.668 40.418C53.0586 40.418 51.75 39.1133 51.75 37.5ZM73.918 48.418C72.7735 47.2657 72.7735 45.4063 73.918 44.25L80 38.168C81.1523 37.0157 83.0156 37.0157 84.168 38.168C85.3204 39.3203 85.3203 41.1836 84.168 42.336L78.043 48.418C77.4961 48.9492 76.7657 49.2461 76 49.25C75.2266 49.2461 74.4844 48.9492 73.918 48.418ZM96.336 67.668C96.336 69.2774 95.0274 70.586 93.418 70.586H84.836C83.2227 70.586 81.918 69.2774 81.918 67.668C81.918 66.0586 83.2227 64.75 84.836 64.75H93.418C94.1915 64.75 94.9336 65.0586 95.4805 65.6055C96.0274 66.1523 96.336 66.8946 96.336 67.668ZM84.129 93H84.1251C85.2696 94.1562 85.2696 96.0156 84.1251 97.168C83.5978 97.7305 82.8556 98.0469 82.086 98.043C81.3009 98.043 80.5508 97.7266 80.0001 97.168L73.9181 91.086C72.7658 89.9337 72.7658 88.0704 73.9181 86.918C75.0704 85.7656 76.9337 85.7657 78.0861 86.918L84.129 93Z" fill="black"/>
</svg>
