<svg width="110" height="135" viewBox="0 0 110 135" fill="none" xmlns="http://www.w3.org/2000/svg">
<path d="M76.961 67.668C76.961 73.5821 74.6094 79.25 70.4298 83.43C66.2501 87.6097 60.5821 89.9612 54.6678 89.9612C48.7535 89.9612 43.0858 87.6096 38.9058 83.43C34.7261 79.2503 32.3746 73.5823 32.3746 67.668C32.3746 61.7537 34.7262 56.086 38.9058 51.906C43.0855 47.7263 48.7535 45.3748 54.6678 45.3748C60.578 45.3865 66.2418 47.7381 70.4178 51.9178C74.5975 56.0936 76.9492 61.7578 76.961 67.668ZM54.668 94.918C53.8985 94.9063 53.1563 95.2032 52.6094 95.7461C52.0586 96.2852 51.75 97.0234 51.75 97.793V106.418C51.75 108.027 53.0586 109.336 54.668 109.336C56.2774 109.336 57.586 108.027 57.586 106.418V97.793C57.586 97.0235 57.2775 96.2852 56.7267 95.7461C56.1798 95.2032 55.4375 94.9063 54.668 94.918ZM31.293 86.918L25.211 93C24.0665 94.1562 24.0665 96.0156 25.211 97.168C25.7423 97.7266 26.4805 98.043 27.2501 98.043C28.0353 98.043 28.7853 97.7266 29.336 97.168L35.418 91.086C36.5703 89.9337 36.5703 88.0704 35.418 86.918C34.2657 85.7656 32.4024 85.7657 31.25 86.918H31.293ZM27.418 67.668C27.4297 66.8985 27.1329 66.1563 26.5899 65.6094C26.0508 65.0586 25.3126 64.75 24.543 64.75H15.918C14.3086 64.75 13 66.0586 13 67.668C13 69.2774 14.3086 70.586 15.918 70.586H24.543C25.3125 70.586 26.0508 70.2775 26.5899 69.7267C27.1329 69.1798 27.4297 68.4375 27.418 67.668ZM31.293 48.418C32.4453 49.5625 34.3047 49.5625 35.461 48.418C36.6055 47.2657 36.6055 45.4063 35.461 44.25L29.336 38.2109C28.1837 37.0586 26.3204 37.0586 25.168 38.2109C24.0157 39.3593 24.0157 41.2265 25.168 42.375L31.293 48.418ZM54.668 40.418C55.4376 40.4297 56.1797 40.1329 56.7266 39.5899C57.2774 39.0508 57.586 38.3126 57.586 37.543V28.918C57.586 27.3086 56.2774 26 54.668 26C53.0586 26 51.75 27.3086 51.75 28.918V37.543C51.75 38.3125 52.0586 39.0508 52.6094 39.5899C53.1563 40.1329 53.8985 40.4297 54.668 40.418ZM76 49.25C76.7656 49.2461 77.4961 48.9492 78.043 48.418L84.125 42.336C85.2773 41.1837 85.2773 39.3204 84.125 38.168C82.9766 37.0157 81.1094 37.0157 79.9609 38.168L73.9179 44.293C72.7734 45.4453 72.7734 47.3047 73.9179 48.461C74.4882 48.9727 75.2344 49.2578 76 49.25ZM93.418 64.75H84.836C83.2227 64.75 81.918 66.0586 81.918 67.668C81.918 69.2774 83.2227 70.586 84.836 70.586H93.418C95.0274 70.586 96.336 69.2774 96.336 67.668C96.336 66.0586 95.0274 64.75 93.418 64.75ZM78.043 86.918C76.8907 85.7657 75.0274 85.7657 73.875 86.918C72.7266 88.0703 72.7266 89.9336 73.875 91.086L79.957 97.168H79.9609C80.5078 97.7266 81.2578 98.043 82.0429 98.043C82.8125 98.043 83.5507 97.7266 84.0859 97.168C85.2304 96.0157 85.2304 94.1563 84.0859 93L78.043 86.918Z" fill="black"/>
</svg>
